<?xml version="1.0" encoding="UTF-8" ?>
<!DOCTYPE svg PUBLIC "-//W3C//DTD SVG 1.1//EN" "http://www.w3.org/Graphics/SVG/1.1/DTD/svg11.dtd">
<svg width="512pt" height="512pt" viewBox="0 0 512 512" version="1.1" xmlns="http://www.w3.org/2000/svg">
<g id="">
<path opacity="1.00" d=" M 0.00 66.40 C 0.59 58.44 7.96 51.90 15.94 52.38 C 74.95 52.36 133.96 52.38 192.97 52.37 C 201.77 52.36 210.66 53.24 219.04 56.05 C 233.70 60.70 246.60 70.16 256.00 82.27 C 266.03 69.30 280.13 59.43 296.01 55.13 C 306.41 52.10 317.35 52.31 328.07 52.37 C 384.08 52.38 440.08 52.36 496.09 52.38 C 504.04 51.91 511.37 58.41 512.00 66.33 L 512.00 445.61 C 511.45 450.49 508.73 455.15 504.39 457.56 C 500.05 460.24 494.76 459.55 489.92 459.63 C 333.94 459.62 177.96 459.62 21.98 459.63 C 17.16 459.55 11.91 460.23 7.60 457.55 C 3.27 455.15 0.56 450.50 0.00 445.65 L 0.00 66.40 M 30.26 369.93 C 32.83 370.17 35.42 370.16 38.00 370.12 C 90.33 370.12 142.66 370.12 195.00 370.12 C 201.58 370.45 208.27 370.60 214.63 372.50 C 224.13 374.55 232.80 379.20 240.81 384.57 C 240.82 301.40 240.81 218.23 240.81 135.06 C 240.86 127.62 240.83 119.94 238.18 112.88 C 232.37 95.20 214.52 82.66 195.95 82.78 C 140.79 82.60 85.62 82.85 30.46 82.65 C 30.13 178.41 30.54 274.18 30.26 369.93 M 287.32 93.35 C 276.76 101.91 271.02 115.50 271.20 129.00 C 271.18 214.18 271.19 299.37 271.19 384.55 C 283.96 375.55 299.27 370.29 314.94 370.18 C 370.52 369.99 426.10 370.26 481.68 370.05 C 481.62 318.35 481.67 266.65 481.65 214.96 C 481.53 170.85 481.90 126.72 481.47 82.61 C 426.63 82.88 371.78 82.62 316.93 82.74 C 306.24 82.77 295.45 86.28 287.32 93.35 M 30.35 400.47 C 30.42 410.09 30.18 419.73 30.47 429.35 C 99.68 429.18 168.89 429.34 238.10 429.27 C 233.49 417.07 223.39 407.03 210.98 402.91 C 203.29 400.12 194.99 400.44 186.94 400.47 C 134.74 400.47 82.55 400.47 30.35 400.47 M 302.82 402.33 C 289.63 406.08 278.71 416.47 273.90 429.27 C 343.10 429.35 412.30 429.15 481.50 429.37 C 481.85 419.74 481.56 410.10 481.65 400.47 C 428.44 400.47 375.23 400.47 322.03 400.47 C 315.59 400.41 309.03 400.44 302.82 402.33 Z" />
<path pacity="1.00" d=" M 82.26 148.34 C 117.51 148.15 152.77 148.26 188.02 148.29 C 195.92 148.15 203.04 155.08 203.07 162.99 C 203.55 171.18 196.26 178.69 188.08 178.55 C 153.06 178.63 118.05 178.62 83.03 178.55 C 75.24 178.61 68.22 171.83 68.12 164.02 C 67.60 156.09 74.30 148.62 82.26 148.34 Z" />
<path opacity="1.00" d=" M 323.25 148.32 C 358.49 148.18 393.74 148.24 428.98 148.29 C 436.83 148.22 443.85 155.12 443.88 162.98 C 444.37 171.17 437.12 178.66 428.93 178.56 C 393.94 178.62 358.95 178.63 323.97 178.55 C 316.14 178.68 309.04 171.87 308.93 164.02 C 308.41 156.03 315.24 148.52 323.25 148.32 Z" />
<path opacity="1.00" d=" M 82.32 210.46 C 116.53 210.25 150.75 210.45 184.97 210.36 C 189.50 210.14 194.37 210.92 197.83 214.10 C 203.26 218.58 204.67 226.99 201.10 233.04 C 198.35 237.99 192.72 240.94 187.10 240.71 C 152.73 240.73 118.36 240.73 83.99 240.71 C 78.87 240.85 73.68 238.47 70.80 234.17 C 67.07 228.93 67.25 221.29 71.28 216.27 C 73.89 212.86 78.03 210.69 82.32 210.46 Z" />
<path opacity="1.00" d=" M 321.47 210.65 C 324.31 210.25 327.18 210.38 330.04 210.37 C 362.71 210.39 395.38 210.35 428.04 210.38 C 433.60 210.20 439.16 213.11 441.89 218.01 C 445.43 223.96 444.12 232.24 438.89 236.79 C 435.73 239.75 431.31 240.88 427.06 240.73 C 392.72 240.69 358.38 240.77 324.05 240.69 C 316.51 240.82 309.59 234.59 309.00 227.07 C 308.02 219.42 313.87 211.78 321.47 210.65 Z" />
<path opacity="1.00" d=" M 77.44 273.68 C 80.77 272.23 84.48 272.52 88.03 272.49 C 121.03 272.51 154.02 272.49 187.02 272.50 C 192.11 272.28 197.24 274.63 200.21 278.81 C 204.16 284.05 203.98 291.88 199.87 296.98 C 196.90 300.90 191.95 302.99 187.08 302.84 C 152.69 302.85 118.29 302.86 83.90 302.83 C 76.77 303.17 69.85 297.98 68.46 290.92 C 66.78 283.97 70.81 276.31 77.44 273.68 Z" />
<path opacity="1.00" d=" M 318.40 273.63 C 321.11 272.47 324.11 272.49 327.01 272.48 C 360.98 272.54 394.95 272.44 428.92 272.54 C 437.06 272.40 444.29 279.84 443.88 287.98 C 443.93 295.86 436.93 302.84 429.05 302.80 C 394.02 302.89 358.98 302.87 323.95 302.81 C 316.77 302.88 310.12 297.19 309.12 290.08 C 307.86 283.29 312.00 276.12 318.40 273.63 Z" />
</g>
</svg>
